<?xml version="1.0" encoding="UTF-8"?>
<svg id="_레이어_2" data-name="레이어_2" xmlns="http://www.w3.org/2000/svg" version="1.1" viewBox="0 0 1693.05 315.17">
  <!-- Generator: Adobe Illustrator 29.6.1, SVG Export Plug-In . SVG Version: 2.1.1 Build 9)  -->
  <path d="M135.25,7.98c-14.82-2.77-29.92,1.99-42.54,9.71-8.62,4.96-16.81,10.68-24.49,17-10.04,8.41-24.02,21.56-27.44,34.3-3.69,16.18,8.02,27.81,21.46,34.48,13.25,6.78,28.07,10.5,41.52,16.89,8.28,4.15,20.55,10.49,19.27,21.52-5.67,18.46-35.55,35-51.88,44.03,0,0-3.81,2.01-3.81,2.01l-1.93,1s-1.95.93-1.95.93c-12.86,6.12-26.05,12.63-39.77,16.66-8.39,2.53-23.93,4.63-16.37-10,4.38-8.33,11.58-14.65,18.35-20.98C64.24,140.64,208.18,57.57,214.14,11.03c0-1.4-.3-2.82-1.21-3.56,0,0,.11.08.11.08-1.8-1.04-4.18-.97-6.39-.39-6.84,1.89-12.78,6.24-18.43,10.47-22.83,17.69-40.03,41.62-54.21,66.55-10.14,18.79-19.86,39.07-20.36,60.76-.25,12.04,6.27,23.8,18.26,27.35,22.85,5.96,48.24-7.03,67.24-18.95,15.01-9.88,29.17-21.47,40.45-35.53,8.91-11.49,14.16-25.46-6.78-17.35-16.45,7.53-29.01,21.81-37.2,37.71-5.52,9.98-8.03,25.15,3.34,32.01,1.89,1.28,4.36,2.11,6.56,2.73,4.61,1.28,9.42,1.79,14.21,1.75,35.9-.52,89.79-30.45,113.66-56.94,7.47-8.58,10.53-19-5.19-16.86-4.71.78-9.18,2.67-13.55,4.55-17.3,7.94-32.59,21.53-40.63,38.96-2.8,6.39-4.79,13.9-1.99,20.57,5.4,11.25,19.51,13.39,30.78,13.92,33.54.99,75.31-29.13,104.16-45.96,6.09-3.85,12.19-7.72,17.94-12.05,1.89-1.44,3.8-2.95,5.29-4.65.27-.3.73-.33,1.03-.07.29.25.33.68.11.98-6.58,9.6-16.22,24.03-22.7,33.99-12.84,19.89-31.49,48.53-44.48,68.73-3.73,5.7-7.47,11.45-11.24,17.1-3.63,5.62-7.55,11.81-11.99,16.65-1.63,2-6.19,5.33-7.83,2.01-.73-2.14.25-4.48,1-6.44,1.8-4.22,3.82-8.26,5.9-12.31,4.18-8.06,8.76-15.92,13.65-23.55,16.9-26.77,35.98-52.79,60.57-73.06,10.41-8.84,21.92-16.41,34.35-22.16,4.17-1.86,8.47-3.53,13.05-4.43,12.71-2.68,18.11,4.67,12.79,16.53-9.23,19.9-40.64,39.71-62.11,42.84-2.76.65-13.94,1.44-12.28-3.86,1.74-3.09,5.03-4.45,7.94-5.91,2.79-1.4,5.72-2.62,8.57-3.86,5.75-2.45,11.53-4.79,17.33-7.1,22.52-8.86,47.15-18.22,69.93-26.6,13.13-4.91,26.26-9.79,38.76-16.05.34-.16.7-.37,1.29-.53.08-.02.15-.04.31-.05.14,0,.23-.04.57.08.3.09.6.42.7.73.05.18.07.48.05.57-.01.29-.18.61-.28.86-3.54,6.05-6.95,12.12-9.18,18.77-2.67,7.44-5.56,20.77,6.43,20.07,5.94-.5,11.76-3.06,17.48-5.37,17.14-7.25,33.63-16.18,49.39-26.11,5.24-3.36,10.44-6.83,15.2-10.75.21-.14.29-.17.6-.2.16-.02.58.05.82.33.22.26.25.45.27.58.06.3-.05.62-.08.81-.07.28-.15.52-.23.76l-.49,1.37c-.48,1.44-2.37,6.61-2.92,8.2-3.98,10.95-8.29,21.8-13.72,32.13-6.88,11.32-16.25,29.74-22.76,41.54-9.79,17.01-63.24,121.67-81.86,113.51-.22-.09-.35-.26-.39-.47-1.97-10.38,9.46-23.21,15.86-30.65,31.88-34.1,71.43-59.94,111.63-83.15,30.39-17.17,62.01-32.03,93.9-46.17.15-.07.33,0,.4.15.07.15,0,.33-.15.4-21.22,9.51-42.3,19.31-62.99,29.92-41.22,21.3-81.23,45.63-116.68,75.7-13.6,11.97-32.59,28.58-39.62,45.34-.94,2.59-1.61,5.42-.98,8.12,0,0-.39-.47-.39-.47,21.5,6.56,88.97-133.35,102.5-154.67,6.67-12.77,11.66-26.46,16.41-40.05,0,0,.48-1.35.48-1.35.07-.22.14-.44.19-.63,0,0,.04-.17.04-.17,0,0,0,.04,0,.09.01.07.02.21.2.42.2.24.55.29.66.27.15-.01.16-.03.21-.04-3.7,3.21-10.08,7.55-15.08,10.74-15.86,10.02-32.35,19.02-49.65,26.35-5.85,2.32-11.75,5-18.14,5.53-13.93.55-11.73-13.74-8.45-22.74,2.25-6.76,5.79-13.04,9.33-19.15,0,0,.03-.07.03-.07,0,0,0,.02,0,.03,0,0-.02.2.04.28.02.23.32.47.5.54.07.04.24.05.23.05.02,0,.04,0,.06,0,.06-.01.04,0,.02,0-17.92,8.91-38.55,15.97-57.33,23-17.05,6.45-35.52,13.46-52.34,20.12-9.99,4.13-20.31,7.84-29.78,13.04-1.11.69-2.59,2.02-2.93,2.77-.04.23-.08.1.08.31,2.85,1.7,6.76,1.13,9.97.66,12.54-2,24.12-7.73,34.61-14.77,10.6-7.08,28.53-21.82,27.71-35.59-.56-5.82-7.45-6-12.27-4.97-4.32.85-8.52,2.46-12.6,4.27-12.21,5.63-23.63,13.13-33.9,21.83-24.47,20.13-43.4,45.91-60.26,72.55-4.89,7.6-9.43,15.39-13.6,23.39-2.06,4-4.09,8.06-5.84,12.16-.6,1.49-1.16,2.96-1.12,4.51.05.42.17.71.26.74,4.59.52,13.69-15.2,16.47-19.16,17.67-26.59,38.44-59.11,55.93-85.71,6.53-10.09,16.08-24.25,22.86-34.04,0,0,1.14.92,1.14.92-3.39,3.68-7.46,6.25-11.47,9.08-11.98,8.12-24.54,15.34-36.93,22.78-23.97,13.89-51.6,31.41-80.17,30.98-22.75-.65-41.01-11.05-29.66-36.01,4.02-8.84,10.04-16.7,17.15-23.28,10.58-9.82,23.62-17.65,37.82-20.69,16.41-2.18,14.22,8.94,5.96,18.27-6.32,7.35-13.99,13.35-21.73,19.11-11.66,8.56-24.06,16.19-37.2,22.28-17.42,8.04-35.92,15.28-55.36,15.62-9.36-.17-20.57-1.26-26.39-9.59-5.62-8.42-2.67-19.5,1.69-27.81,8.24-16.05,20.9-30.46,37.5-38.08,18.2-7.22,19.09,2.4,9.83,15.55-19.22,26.34-63.14,57.7-96.29,59.51-5.15.22-10.47-.09-15.38-1.74-10.73-3.77-17.14-13.33-18.1-24.51-1.12-23.24,9.56-45.09,20.16-65.13,16.38-28.75,37.53-58.32,66.63-75.19,8.56-4.66,19.53-5.86,15.71,7.53-2.75,9.02-8.47,16.74-14.33,23.93-24.37,27.98-54.8,49.86-84.51,71.72-29.71,21.87-61.22,41.54-89.44,65.3-4.57,4.05-8.93,8.44-12.96,12.99-2.82,3.45-5.47,7.3-6.63,11.61-.33,1.38-.35,2.85.35,3.76,0,0-.06-.06-.06-.06.82.84,2.06,1.31,3.38,1.5,1.32.18,2.71.16,4.09.04,8.46-1,16.48-4.29,24.37-7.47,5.28-2.2,10.48-4.59,15.67-7.03,18.45-8.54,60.84-30.37,66.67-50.59,1.4-13.55-21.76-21.49-32.24-25.65-19.3-7.66-48.31-14.89-50.4-39.55-.56-7.74,3.04-14.95,7.64-20.94,5.94-8.08,13.26-15.04,20.98-21.38,7.74-6.32,15.98-12.03,24.67-16.98,12.8-7.74,28.05-12.48,43.04-9.62.16.03.27.19.24.35-.03.16-.19.27-.36.24h0Z"/>
  <path d="M925.72,24.55c-12.44,32.18-25.37,64.38-42.5,94.42-8.77,14.72-17.29,29.89-21.48,46.62-.66,2.77-1.2,5.58-1.37,8.39-.06,1.94-.16,4.22,1.17,5.67,2.22,1.82,6.82-2.31,8.91-3.44,7.18-4.76,13.81-10.28,20.45-15.77,12.91-10.43,26.91-22.66,39.86-33.04,4.51-3.59,9.09-7.08,13.94-10.25,1.83-1.14,4.16-2.73,6.51-1.86,3.32,1.86,2.15,7.63,2.02,10.75-.56,5.78-1.73,11.42-2.61,17.1-1.52,8.4-2.97,16.94-1.81,25.41,2.69,19.71,23.17,5.66,31.97-1.53,13.27-10.83,24.91-23.72,35.23-37.39,16.27-22.95,33.19-48.27,34.3-77.25.12-15.91-8.54-19.05-22.1-12.69-.38.19-.6-.39-.26-.54,2.62-1.22,5.31-2.34,8.17-2.96,5.3-1.25,10.82.08,13.35,5.44,3.77,8.82,1.71,18.96-.22,27.97-8.38,34.26-39.85,76.98-67.19,99.03-10.2,8.34-31.77,21.93-35.06.2-1.96-15.98,4.52-31.38,5.26-47.18.22-6.14-2.13-6.75-6.97-3.58-4.83,3.06-9.45,6.49-13.99,10-15.79,12.26-37.63,31.45-53.34,43.8-3.42,2.65-6.92,5.2-10.59,7.51-1.75,1.14-4.52,2.8-6.56,1.11-3.16-3.29-1.13-11.16-.4-15.21,3.93-16.92,12.43-32.46,21.29-47.21,11.55-19.84,20.9-40.92,30.11-61.94,4.56-10.55,9.04-21.15,13.35-31.81.06-.15.24-.23.39-.17.15.06.23.23.17.39h0Z"/>
  <path d="M1104.21,117.88c1.42-19.69-16.15-16.47-28.08-9.14-7.58,4.66-14.12,10.99-19.58,18-7.96,10.43-15.96,22.31-17.56,35.38-.43,20.4,22.77,16.1,35.04,9.48,16.06-8.43,27.57-23.48,36.13-39.16,2.73-5.64,6.05-11.48,6.41-17.84.15-1.46-.44-2.46-.16-4.04.49-1.21,1.72-.97,2.73-1.06,3.4,0,10.63,0,14.17-.02,16.2.07,32.46-.53,48.49,2.82,3.94,1.05,8.42,1.79,11.53,4.74,5.47,5.55,1.88,13.9-.55,19.96-2.14,5-4.66,9.81-7.45,14.46-2.88,4.65-5.82,9.25-9.83,13.07,0,0-1.12-1.23-1.12-1.23,4.11-3.65,8.67-6.56,13.21-9.45,13.68-8.57,27.75-16.74,43.03-22.19,7.14-2.27,27.74-9.83,29.3,2.26,1.06,12.12-4.97,23.87-3.38,35.99.5,11.09,16,7.16,23.06,5.56,15.52-4.19,30.37-10.76,44.62-18.15,18.23-9.37,37-20.38,57.05-25.2,3.12-.93,5.12-.15,2.27,2.89-2.81,2.92-5.87,5.52-8.82,8.3-3.41,3.15-8.53,7.76-11.82,10.95-6.58,6.59-13.81,12.88-18.1,21.27-2.67,4.67-.94,7.18,4.37,5.69,7.67-2.32,14.5-6.79,21.11-11.25,22.21-15.2,40.58-35.06,58.34-55.09,10.58-12.09,21.09-24.35,29.91-37.79,2.76-4.42,5.69-9.08,6.83-14.16,0,0,.02.41.02.41-.03-.02.05.13.22.18.15.03.08,0,0,.04-.18.06-.45.24-.69.42-3.64,3.12-6.46,7.15-9.43,10.92-9.89,13.47-19.02,27.6-27.13,42.22-7.62,14.42-20.27,38.15-15.94,54.51,4.87,15.47,22.86,11.98,34.73,7.66,10.45-3.78,19.71-10.24,29.03-16.19,14.31-9.66,28.71-20.09,38.67-34.36,1.71-2.72,3.7-5.78,3.96-9.03.11-1.23-.21-2.31-.96-3.04-2.68-1.36-6.75.79-9.5,2.17-12.8,7.57-23.78,18.69-30.94,31.75-1.91,3.72-3.45,7.62-4.34,11.67-2.1,11.52,1.82,21.25,14.14,23.6,22.92,3.87,54.73-9.14,76.01-17.9,12.05-5.43,24.72-9.59,36.42-15.72.81-.5,1.67-1.02,2.34-1.62,0,0,.03-.03-.02.02-.61.15,1.16,1.73.82,1.01-6.36,5.16-11.31,12.2-14.98,19.45-2.41,5.31-.83,5.82,3.86,3.57,3.14-1.51,6.93-3.55,9.98-5.32,19.67-11.31,38.95-23.64,59.9-32.57,6.99-2.93,14.17-5.57,21.7-6.85.16-.03.32.08.35.25.03.16-.08.32-.25.35-7.44,1.32-14.56,4-21.5,6.96-23.53,10.13-44.63,24.84-67.08,37.05-1.78.8-3.45,1.87-5.3,2.36-1.11.29-2.24.55-3.31-.24-2.94-2.98,4.47-13,6.41-15.93,2.83-3.76,5.8-7.56,9.64-10.34-.28-.76,1.57.84.89,1.05-2.25,2.1-5.17,3.3-7.87,4.6-10.34,4.75-21.01,8.71-31.39,13.34-19.67,8.24-69.45,29.24-87.59,13.25-5.61-5.19-6.41-13.61-5.12-20.73,3.98-17.21,17.33-31.7,31.35-41.76,4.1-2.75,12.1-8.08,16.71-5,4.1,4.23-.2,10.79-2.64,14.73-10.11,14.55-24.74,25.18-39.22,34.96-11.77,7.65-23.69,15.78-37.63,18.82-11.44,3.15-25.31,1.64-29.18-11.44-6.3-23.27,21.04-65.12,33.85-84.63,3.15-4.65,6.33-9.24,9.73-13.74,3.08-3.88,5.98-7.99,9.81-11.2.32-.23.63-.46,1.11-.65.26-.07.54-.2,1.03-.08.67.24.99.78.93,1.33-1.25,5.46-4.23,10.08-7.13,14.71-8.94,13.48-19.55,25.74-30.23,37.83-17.91,20.02-36.45,39.84-58.78,55.02-5.87,3.88-18.69,12.56-25.64,11.63-7.36-1.87,3.27-14.35,5.77-17.27,5.42-5.96,11.31-11.56,17.25-16.98,3.48-3.22,8.48-7.68,11.89-10.89,1.41-1.44,3.38-2.73,4.07-4.63-.07-.27-.55-.21-.87-.22-5.23.88-10.37,2.63-15.36,4.43-25.16,9.4-47.49,25.18-72.83,34.35-5.03,1.9-10.14,3.64-15.36,5-5.24,1.31-10.63,2.49-16.08,1.9-7.39-.86-8.33-5.59-8.41-12.17-.06-8.17,2.29-15.98,3.27-23.98,1.48-10.62-.8-14.86-12.09-13.14-15.84,2.64-30.46,10.09-44.3,18.01-9.09,5.49-18.63,10.78-26.7,17.67-.34.31-.87.28-1.17-.07-.3-.34-.27-.85.05-1.16,1.89-1.77,3.56-3.86,5.11-6.02,5.08-7.25,17.21-27.28,14.47-35.94-1.63-5.16-7.95-6.04-12.56-7.3-10.42-2.29-21.22-2.58-31.96-2.81,0,0-31.47-.06-31.47-.06,0,0,.1-.26.1-.26-.1.42,0,.96.09,1.64.56,4.73-1.3,9.36-3.11,13.58-2.1,4.79-4.59,9.42-7.33,13.87-10.85,17.56-26.72,34.25-47.89,38.04-11.7,2.16-22.67-2.03-22.16-15.98,1.06-9.11,5.27-17.45,10.13-25.06,4.93-7.54,10.4-14.82,17.08-20.9,7.63-7.32,26.31-19.47,36.41-11.03,3.44,3.29,3.84,8.37,3.53,12.83-.01.17-.16.29-.32.28-.16-.01-.29-.16-.28-.32h0Z"/>
</svg>