<svg xmlns="http://www.w3.org/2000/svg" id="canvas" viewBox="390.307 493.535 1693.053 315.166"><path d="M 527.86,500.36 C 527.07 499.13, 525.89 497.55, 522.97 496.92 C 520.04 496.29, 517.83 496.46, 513.22 497.23 C 508.61 498.01, 505.77 498.50, 499.90 500.79 C 494.04 503.09, 490.65 504.86, 483.89 508.72 C 477.12 512.58, 473.04 515.03, 466.08 520.07 C 459.11 525.11, 455.18 528.11, 449.06 533.93 C 442.94 539.74, 439.66 543.13, 435.49 549.15 C 431.32 555.17, 429.60 558.35, 428.21 564.04 C 426.82 569.73, 426.91 572.62, 428.52 577.60 C 430.13 582.58, 432.02 584.90, 436.25 588.94 C 440.48 592.98, 443.67 594.56, 449.66 597.78 C 455.66 601.01, 459.47 602.32, 466.21 605.07 C 472.95 607.82, 476.90 608.96, 483.36 611.54 C 489.82 614.13, 493.43 615.32, 498.51 617.99 C 503.58 620.66, 505.97 622.06, 508.73 624.90 C 511.48 627.74, 512.19 628.93, 512.30 632.19 C 512.40 635.45, 511.96 637.11, 509.25 641.21 C 506.54 645.31, 504.26 647.82, 498.73 652.66 C 493.20 657.51, 489.27 660.35, 481.59 665.43 C 473.91 670.51, 468.97 673.39, 460.32 678.07 C 451.68 682.74, 446.67 685.12, 438.36 688.79 C 430.05 692.46, 425.58 694.27, 418.79 696.44 C 411.99 698.60, 408.63 699.14, 404.39 699.61 C 400.14 700.09, 398.89 699.75, 397.57 698.80 C 396.25 697.85, 396.55 697.60, 397.79 694.85 C 399.03 692.10, 399.94 689.74, 403.77 685.05 C 407.60 680.36, 410.44 677.32, 416.95 671.38 C 423.46 665.43, 427.69 662.06, 436.34 655.32 C 445.00 648.58, 450.16 644.98, 460.25 637.69 C 470.33 630.39, 476.04 626.50, 486.78 618.83 C 497.51 611.17, 503.22 607.18, 513.94 599.34 C 524.66 591.51, 530.35 587.45, 540.37 579.65 C 550.39 571.84, 555.39 567.83, 564.04 560.33 C 572.70 552.82, 576.82 549.00, 583.64 542.12 C 590.46 535.23, 593.57 531.78, 598.13 525.91 C 602.69 520.04, 604.40 517.38, 606.46 512.77 C 608.53 508.16, 609.23 505.99, 608.45 502.86 C 607.67 499.73, 605.93 497.79, 602.57 497.10 C 599.20 496.42, 596.64 497.15, 591.61 499.44 C 586.57 501.73, 583.62 503.53, 577.39 508.55 C 571.16 513.58, 567.46 517.00, 560.48 524.56 C 553.50 532.12, 549.43 536.93, 542.47 546.36 C 535.51 555.78, 531.72 561.31, 525.68 571.67 C 519.64 582.04, 516.60 587.97, 512.26 598.19 C 507.91 608.40, 505.97 613.71, 503.94 622.74 C 501.91 631.77, 501.45 636.12, 502.10 643.34 C 502.75 650.56, 503.86 653.94, 507.20 658.83 C 510.53 663.72, 513.19 665.58, 518.77 667.79 C 524.36 670.01, 527.92 670.33, 535.12 669.92 C 542.33 669.50, 546.59 668.41, 554.78 665.72 C 562.96 663.03, 567.60 660.83, 576.06 656.45 C 584.51 652.08, 589.11 649.24, 597.04 643.85 C 604.96 638.46, 609.10 635.19, 615.69 629.53 C 622.28 623.86, 625.38 620.72, 629.97 615.53 C 634.56 610.34, 636.48 607.86, 638.65 603.57 C 640.81 599.27, 641.45 597.10, 640.80 594.06 C 640.15 591.01, 638.44 589.26, 635.41 588.33 C 632.38 587.39, 630.00 587.86, 625.65 589.39 C 621.29 590.92, 618.60 592.48, 613.65 595.98 C 608.69 599.48, 605.73 601.97, 600.86 606.90 C 595.99 611.83, 593.27 614.98, 589.30 620.64 C 585.32 626.31, 583.25 629.54, 581.00 635.22 C 578.75 640.90, 577.91 643.97, 578.05 649.04 C 578.19 654.12, 578.95 656.82, 581.72 660.60 C 584.49 664.38, 586.80 666.01, 591.90 667.95 C 597.00 669.88, 600.30 670.29, 607.22 670.26 C 614.14 670.24, 618.29 669.62, 626.51 667.84 C 634.72 666.05, 639.34 664.63, 648.28 661.34 C 657.21 658.05, 662.26 655.83, 671.18 651.37 C 680.11 646.90, 684.82 644.16, 692.90 639.02 C 700.98 633.88, 705.09 630.88, 711.57 625.67 C 718.06 620.47, 721.13 617.62, 725.34 612.99 C 729.55 608.35, 731.24 606.33, 732.63 602.49 C 734.01 598.66, 733.98 596.33, 732.26 593.82 C 730.55 591.31, 728.25 590.17, 724.06 589.93 C 719.87 589.70, 716.89 590.56, 711.31 592.66 C 705.74 594.76, 702.30 596.41, 696.20 600.44 C 690.10 604.47, 686.50 607.37, 680.80 612.80 C 675.10 618.23, 671.97 621.63, 667.71 627.58 C 663.46 633.54, 661.42 636.82, 659.52 642.57 C 657.61 648.32, 657.15 651.48, 658.17 656.32 C 659.19 661.16, 660.70 663.56, 664.60 666.76 C 668.51 669.97, 671.45 671.18, 677.68 672.36 C 683.91 673.53, 687.83 673.49, 695.76 672.64 C 703.69 671.79, 708.32 670.73, 717.35 668.10 C 726.39 665.47, 731.46 663.55, 740.94 659.50 C 750.43 655.45, 755.60 652.76, 764.78 647.86 C 773.97 642.96, 778.78 640.02, 786.87 635.00 C 794.96 629.98, 798.90 627.13, 805.24 622.78 C 811.58 618.43, 814.93 616.18, 818.55 613.25 C 822.18 610.31, 823.16 608.76, 823.37 608.11 C 823.58 607.46, 821.93 607.31, 819.60 610.00 C 817.27 612.68, 815.77 615.56, 811.71 621.54 C 807.66 627.52, 804.76 631.68, 799.34 639.88 C 793.92 648.08, 790.57 653.22, 784.61 662.56 C 778.66 671.89, 775.52 677.15, 769.56 686.54 C 763.60 695.94, 760.43 700.92, 754.81 709.54 C 749.19 718.17, 746.25 722.66, 741.46 729.65 C 736.67 736.64, 734.26 740.02, 730.85 744.50 C 727.45 748.98, 725.62 750.46, 724.44 752.04 C 723.25 753.62, 724.19 754.32, 724.92 752.38 C 725.66 750.44, 725.86 748.02, 728.12 742.35 C 730.38 736.67, 732.00 732.24, 736.22 724.00 C 740.44 715.77, 743.24 710.50, 749.23 701.19 C 755.22 691.87, 758.96 686.64, 766.18 677.44 C 773.40 668.24, 777.59 663.41, 785.32 655.20 C 793.06 646.99, 797.27 643.00, 804.85 636.40 C 812.43 629.80, 816.37 626.86, 823.24 622.20 C 830.11 617.54, 833.49 615.69, 839.19 613.11 C 844.89 610.54, 847.59 609.96, 851.73 609.32 C 855.87 608.68, 857.56 609.20, 859.91 609.92 C 862.27 610.65, 862.75 611.26, 863.51 612.95 C 864.27 614.64, 864.35 615.63, 863.71 618.37 C 863.06 621.11, 862.56 623.02, 860.29 626.64 C 858.02 630.26, 856.28 632.52, 852.36 636.48 C 848.43 640.43, 845.79 642.72, 840.67 646.41 C 835.54 650.10, 832.30 651.96, 826.74 654.93 C 821.19 657.90, 818.03 659.32, 812.90 661.27 C 807.77 663.22, 805.03 663.85, 801.08 664.67 C 797.12 665.50, 795.33 665.13, 793.12 665.41 C 790.92 665.69, 790.34 666.03, 790.05 666.08 C 789.76 666.14, 790.26 666.42, 791.66 665.68 C 793.07 664.95, 794.07 664.23, 797.08 662.41 C 800.09 660.59, 801.97 659.07, 806.72 656.57 C 811.47 654.07, 814.52 652.68, 820.83 649.90 C 827.13 647.12, 830.92 645.62, 838.26 642.67 C 845.60 639.71, 849.71 638.16, 857.51 635.13 C 865.31 632.11, 869.48 630.58, 877.26 627.55 C 885.04 624.52, 889.18 622.86, 896.41 619.97 C 903.63 617.09, 907.31 615.55, 913.39 613.11 C 919.46 610.66, 922.25 609.48, 926.76 607.74 C 931.28 606.01, 933.69 605.59, 935.97 604.44 C 938.25 603.28, 938.50 602.11, 938.17 601.97 C 937.84 601.84, 936.15 601.85, 934.32 603.76 C 932.50 605.66, 931.37 607.84, 929.03 611.50 C 926.70 615.16, 924.87 617.77, 922.64 622.05 C 920.41 626.32, 918.83 628.84, 917.90 632.87 C 916.96 636.90, 916.65 639.19, 917.94 642.20 C 919.24 645.22, 920.91 646.91, 924.38 647.96 C 927.84 649.01, 930.27 648.56, 935.27 647.45 C 940.28 646.34, 943.25 645.11, 949.39 642.39 C 955.53 639.67, 959.18 637.66, 965.98 633.85 C 972.79 630.04, 976.65 627.55, 983.40 623.34 C 990.15 619.13, 994.08 616.28, 999.73 612.78 C 1005.38 609.29, 1008.43 607.64, 1011.64 605.87 C 1014.84 604.10, 1015.26 603.25, 1015.76 603.92 C 1016.25 604.59, 1015.63 605.33, 1014.09 609.24 C 1012.55 613.14, 1011.26 616.54, 1008.04 623.43 C 1004.83 630.32, 1002.48 634.82, 998.03 643.69 C 993.58 652.56, 991.05 657.73, 985.78 667.77 C 980.51 677.81, 977.53 683.35, 971.69 693.89 C 965.84 704.43, 962.58 710.13, 956.54 720.48 C 950.50 730.82, 947.41 736.19, 941.49 745.61 C 935.57 755.03, 932.51 759.73, 926.95 767.58 C 921.39 775.43, 918.55 779.13, 913.68 784.85 C 908.82 790.58, 906.43 792.93, 902.64 796.20 C 898.86 799.47, 896.83 800.00, 894.77 801.22 C 892.71 802.44, 892.56 802.89, 892.33 802.32 C 892.10 801.74, 892.53 801.15, 893.63 798.34 C 894.73 795.54, 894.99 793.15, 897.83 788.29 C 900.67 783.44, 902.72 780.27, 907.83 774.08 C 912.93 767.90, 916.08 764.25, 923.37 757.35 C 930.65 750.45, 935.06 746.73, 944.23 739.58 C 953.41 732.42, 958.76 728.68, 969.25 721.59 C 979.74 714.49, 985.65 710.86, 996.69 704.10 C 1007.73 697.35, 1013.58 693.96, 1024.46 687.81 C 1035.35 681.66, 1040.99 678.65, 1051.12 673.34 C 1061.25 668.04, 1066.26 665.61, 1075.10 661.28 C 1083.93 656.95, 1088.41 654.80, 1095.30 651.71 C 1102.18 648.62, 1105.17 647.70, 1109.51 645.83 C 1113.84 643.96, 1115.03 643.51, 1116.96 642.37 C 1118.89 641.23, 1118.82 640.79, 1119.15 640.12 C 1119.48 639.46, 1119.34 639.20, 1118.62 639.05 C 1117.90 638.90, 1117.66 638.64, 1115.56 639.39 C 1113.46 640.14, 1112.39 640.76, 1108.13 642.78 C 1103.87 644.80, 1101.03 646.15, 1094.25 649.49 C 1087.47 652.83, 1083.00 655.04, 1074.21 659.50 C 1065.42 663.96, 1060.41 666.42, 1050.30 671.79 C 1040.19 677.16, 1034.54 680.19, 1023.64 686.37 C 1012.75 692.55, 1006.90 695.94, 995.83 702.69 C 984.76 709.45, 978.84 713.08, 968.29 720.15 C 957.73 727.22, 952.35 730.95, 943.06 738.05 C 933.76 745.16, 929.30 748.85, 921.81 755.67 C 914.31 762.49, 911.06 766.05, 905.57 772.14 C 900.09 778.23, 897.76 781.17, 894.38 786.11 C 891.01 791.05, 889.52 793.26, 888.69 796.85 C 887.85 800.43, 888.62 802.38, 890.20 804.04 C 891.78 805.70, 893.66 806.22, 896.58 805.12 C 899.51 804.03, 901.03 802.31, 904.83 798.57 C 908.63 794.82, 910.82 792.37, 915.57 786.41 C 920.33 780.45, 923.13 776.71, 928.62 768.75 C 934.12 760.78, 937.16 756.06, 943.05 746.59 C 948.94 737.11, 952.03 731.73, 958.07 721.37 C 964.12 711.01, 967.38 705.31, 973.28 694.78 C 979.17 684.25, 982.17 678.70, 987.56 668.71 C 992.95 658.73, 995.56 653.61, 1000.24 644.84 C 1004.92 636.07, 1007.46 631.73, 1010.97 624.86 C 1014.48 617.99, 1016.50 614.97, 1017.79 610.49 C 1019.09 606.00, 1018.99 604.04, 1017.44 602.42 C 1015.88 600.80, 1013.91 600.87, 1010.02 602.40 C 1006.13 603.92, 1003.62 606.35, 997.99 610.04 C 992.35 613.74, 988.54 616.64, 981.85 620.86 C 975.15 625.09, 971.28 627.52, 964.51 631.16 C 957.73 634.79, 954.00 636.64, 947.98 639.03 C 941.96 641.42, 938.84 642.29, 934.39 643.09 C 929.93 643.89, 928.08 643.56, 925.71 643.04 C 923.33 642.51, 923.04 642.21, 922.52 640.46 C 922.00 638.71, 922.10 637.43, 923.12 634.29 C 924.13 631.15, 925.39 628.64, 927.61 624.76 C 929.83 620.89, 931.82 618.46, 934.23 614.92 C 936.64 611.39, 938.58 609.83, 939.65 607.08 C 940.72 604.33, 940.64 602.64, 939.59 601.19 C 938.54 599.74, 937.25 599.22, 934.39 599.84 C 931.52 600.45, 929.71 602.16, 925.27 604.26 C 920.84 606.36, 918.19 607.69, 912.21 610.34 C 906.24 612.99, 902.58 614.54, 895.41 617.51 C 888.23 620.47, 884.10 622.14, 876.33 625.18 C 868.56 628.21, 864.40 629.73, 856.58 632.69 C 848.75 635.65, 844.62 637.17, 837.21 639.98 C 829.80 642.79, 825.99 644.23, 819.52 646.73 C 813.04 649.23, 809.93 650.40, 804.82 652.49 C 799.72 654.57, 797.36 655.21, 793.98 657.17 C 790.60 659.13, 789.11 660.14, 787.91 662.27 C 786.71 664.39, 786.94 666.13, 788.00 667.80 C 789.05 669.46, 790.35 670.37, 793.17 670.60 C 796.00 670.84, 797.92 670.15, 802.13 668.97 C 806.35 667.79, 809.02 666.90, 814.27 664.70 C 819.52 662.50, 822.68 661.04, 828.38 657.97 C 834.07 654.90, 837.38 653.06, 842.74 649.34 C 848.10 645.63, 850.87 643.40, 855.18 639.40 C 859.50 635.39, 861.53 633.30, 864.31 629.32 C 867.10 625.34, 868.39 623.24, 869.11 619.51 C 869.82 615.78, 869.48 613.47, 867.90 610.67 C 866.32 607.86, 864.59 606.47, 861.22 605.50 C 857.85 604.53, 855.71 604.80, 851.07 605.82 C 846.42 606.84, 843.83 607.72, 838.00 610.62 C 832.18 613.52, 828.85 615.48, 821.95 620.34 C 815.06 625.20, 811.14 628.19, 803.54 634.91 C 795.94 641.62, 791.73 645.65, 783.96 653.92 C 776.19 662.19, 771.99 667.04, 764.68 676.25 C 757.36 685.47, 753.60 690.71, 747.41 699.99 C 741.21 709.27, 738.23 714.47, 733.71 722.67 C 729.18 730.87, 727.21 735.11, 724.78 740.99 C 722.35 746.87, 721.25 749.37, 721.55 752.06 C 721.86 754.76, 723.95 755.61, 726.30 754.46 C 728.65 753.31, 729.90 751.03, 733.32 746.33 C 736.74 741.63, 738.77 738.08, 743.41 730.95 C 748.04 723.81, 750.95 719.31, 756.51 710.64 C 762.08 701.98, 765.24 696.99, 771.22 687.60 C 777.20 678.21, 780.34 672.96, 786.40 663.71 C 792.47 654.47, 795.91 649.41, 801.53 641.37 C 807.15 633.33, 810.23 629.33, 814.50 623.51 C 818.77 617.68, 821.16 615.52, 822.89 612.23 C 824.62 608.94, 824.42 607.40, 823.15 607.06 C 821.87 606.72, 820.41 607.83, 816.52 610.55 C 812.64 613.27, 809.90 616.14, 803.73 620.66 C 797.57 625.18, 793.69 628.07, 785.70 633.14 C 777.71 638.21, 772.92 641.13, 763.80 646.01 C 754.67 650.88, 749.51 653.54, 740.09 657.49 C 730.67 661.44, 725.61 663.30, 716.69 665.76 C 707.77 668.23, 703.16 669.13, 695.48 669.80 C 687.81 670.48, 684.04 670.28, 678.31 669.12 C 672.59 667.96, 670.19 666.72, 666.84 664.02 C 663.48 661.32, 662.40 659.70, 661.54 655.61 C 660.68 651.52, 660.82 648.83, 662.54 643.57 C 664.26 638.31, 666.08 635.03, 670.14 629.31 C 674.20 623.60, 677.28 620.19, 682.86 614.99 C 688.44 609.78, 692.06 606.99, 698.02 603.29 C 703.99 599.58, 707.49 598.23, 712.68 596.48 C 717.87 594.73, 720.67 594.63, 723.97 594.53 C 727.28 594.43, 728.19 594.67, 729.22 596.00 C 730.25 597.33, 730.35 598.15, 729.13 601.16 C 727.90 604.16, 726.92 606.50, 723.10 611.02 C 719.28 615.55, 716.30 618.55, 710.02 623.77 C 703.74 628.99, 699.66 632.02, 691.70 637.14 C 683.73 642.26, 679.04 644.99, 670.19 649.38 C 661.35 653.77, 656.31 655.94, 647.46 659.10 C 638.62 662.25, 634.00 663.57, 625.95 665.16 C 617.91 666.76, 613.79 667.18, 607.24 667.06 C 600.69 666.94, 597.69 666.30, 593.20 664.56 C 588.70 662.82, 587.07 661.49, 584.76 658.37 C 582.46 655.24, 581.79 653.32, 581.67 648.94 C 581.55 644.56, 582.09 641.74, 584.15 636.46 C 586.21 631.18, 588.15 627.95, 591.99 622.54 C 595.82 617.13, 598.53 614.02, 603.33 609.40 C 608.13 604.77, 611.18 602.49, 615.96 599.41 C 620.75 596.32, 623.57 595.29, 627.27 593.97 C 630.96 592.65, 632.50 592.66, 634.43 592.81 C 636.36 592.96, 636.70 592.90, 636.91 594.74 C 637.11 596.58, 637.28 598.21, 635.47 602.01 C 633.66 605.80, 632.12 608.57, 627.84 613.71 C 623.57 618.85, 620.52 622.05, 614.10 627.70 C 607.68 633.35, 603.57 636.62, 595.74 641.95 C 587.92 647.28, 583.32 650.08, 574.97 654.33 C 566.61 658.59, 561.97 660.68, 553.97 663.23 C 545.97 665.77, 541.79 666.68, 534.97 667.04 C 528.14 667.40, 524.95 666.99, 519.85 665.03 C 514.76 663.07, 512.55 661.64, 509.48 657.26 C 506.41 652.87, 505.20 649.93, 504.50 643.11 C 503.80 636.30, 504.08 632.02, 505.98 623.18 C 507.88 614.35, 509.74 609.04, 514.00 598.92 C 518.26 588.81, 521.26 582.88, 527.28 572.61 C 533.29 562.33, 537.08 556.83, 544.06 547.54 C 551.05 538.26, 555.15 533.49, 562.19 526.17 C 569.23 518.85, 573.05 515.57, 579.25 510.95 C 585.45 506.32, 588.64 504.93, 593.18 503.04 C 597.72 501.16, 599.63 501.42, 601.93 501.54 C 604.24 501.66, 604.38 501.67, 604.69 503.66 C 605.00 505.65, 605.20 507.34, 603.49 511.49 C 601.79 515.65, 600.42 518.59, 596.16 524.43 C 591.91 530.28, 588.86 533.81, 582.21 540.72 C 575.56 547.64, 571.46 551.48, 562.90 559.01 C 554.33 566.54, 549.35 570.56, 539.37 578.37 C 529.39 586.18, 523.71 590.23, 513.00 598.06 C 502.29 605.88, 496.58 609.86, 485.82 617.49 C 475.06 625.12, 469.35 628.99, 459.19 636.22 C 449.04 643.44, 443.86 647.01, 435.05 653.63 C 426.24 660.25, 421.93 663.50, 415.13 669.32 C 408.33 675.14, 405.30 677.91, 401.04 682.73 C 396.79 687.55, 394.97 689.70, 393.86 693.42 C 392.75 697.14, 393.32 699.42, 395.49 701.33 C 397.67 703.24, 399.90 703.45, 404.73 702.98 C 409.56 702.52, 412.72 701.41, 419.64 699.00 C 426.56 696.60, 430.97 694.72, 439.33 690.95 C 447.68 687.18, 452.70 684.80, 461.43 680.13 C 470.17 675.46, 475.15 672.63, 483.00 667.61 C 490.86 662.58, 494.88 659.88, 500.72 655.00 C 506.57 650.12, 509.15 647.79, 512.23 643.20 C 515.32 638.61, 516.31 636.22, 516.15 632.05 C 515.99 627.87, 514.64 625.74, 511.42 622.33 C 508.20 618.92, 505.44 617.73, 500.05 615.00 C 494.67 612.26, 491.04 611.21, 484.51 608.65 C 477.98 606.09, 474.05 604.94, 467.40 602.19 C 460.74 599.44, 456.99 598.05, 451.22 594.91 C 445.46 591.77, 442.49 590.16, 438.57 586.49 C 434.65 582.82, 433.11 580.92, 431.63 576.57 C 430.15 572.22, 429.93 569.93, 431.16 564.76 C 432.39 559.59, 433.82 556.50, 437.77 550.72 C 441.71 544.93, 444.89 541.52, 450.87 535.83 C 456.84 530.14, 460.75 527.16, 467.65 522.27 C 474.55 517.39, 478.66 514.98, 485.37 511.41 C 492.08 507.84, 495.51 506.24, 501.20 504.41 C 506.88 502.58, 509.64 502.52, 513.81 502.25 C 517.99 501.98, 519.47 502.91, 522.08 503.08 C 524.70 503.25, 525.73 503.63, 526.89 503.09 C 528.04 502.54, 528.64 501.59, 527.86 500.36" style="stroke: black; fill: black;"/><path d="M 1316.44,517.06 C 1315.31 517.71, 1314.66 518.39, 1313.16 521.38 C 1311.66 524.38, 1311.20 526.46, 1308.92 532.05 C 1306.65 537.64, 1305.33 541.43, 1301.78 549.32 C 1298.23 557.22, 1295.82 562.07, 1291.18 571.53 C 1286.53 580.99, 1283.61 586.58, 1278.57 596.62 C 1273.52 606.66, 1270.53 612.24, 1265.95 621.72 C 1261.38 631.20, 1259.01 636.16, 1255.69 644.02 C 1252.36 651.89, 1250.83 655.46, 1249.33 661.06 C 1247.82 666.67, 1247.10 668.97, 1248.15 672.04 C 1249.20 675.11, 1251.25 676.49, 1254.59 676.44 C 1257.93 676.38, 1260.10 674.83, 1264.87 671.78 C 1269.64 668.73, 1272.46 666.20, 1278.44 661.18 C 1284.43 656.17, 1288.03 652.73, 1294.79 646.70 C 1301.55 640.67, 1305.53 636.87, 1312.26 631.03 C 1318.99 625.19, 1322.93 621.71, 1328.45 617.53 C 1333.96 613.34, 1336.78 611.75, 1339.83 610.12 C 1342.87 608.49, 1343.00 608.31, 1343.67 609.36 C 1344.33 610.42, 1343.83 611.72, 1343.16 615.40 C 1342.49 619.09, 1341.55 622.37, 1340.31 627.80 C 1339.07 633.23, 1337.95 636.85, 1336.97 642.56 C 1335.99 648.27, 1335.46 651.39, 1335.43 656.35 C 1335.40 661.31, 1335.32 663.76, 1336.82 667.38 C 1338.31 671.00, 1339.68 672.93, 1342.90 674.47 C 1346.13 676.01, 1348.55 676.07, 1352.94 675.08 C 1357.33 674.09, 1359.74 672.86, 1364.87 669.53 C 1370.00 666.20, 1372.85 663.85, 1378.59 658.44 C 1384.33 653.04, 1387.56 649.55, 1393.57 642.49 C 1399.59 635.43, 1402.89 631.20, 1408.66 623.14 C 1414.43 615.07, 1417.46 610.52, 1422.42 602.19 C 1427.38 593.86, 1429.78 589.34, 1433.46 581.49 C 1437.15 573.64, 1438.79 569.70, 1440.85 562.94 C 1442.92 556.19, 1443.49 553.06, 1443.78 547.70 C 1444.08 542.33, 1443.67 539.95, 1442.34 536.12 C 1441.02 532.30, 1439.76 530.66, 1437.16 528.56 C 1434.57 526.47, 1432.39 525.93, 1429.38 525.63 C 1426.37 525.33, 1424.47 526.13, 1422.11 527.07 C 1419.75 528.01, 1418.82 528.93, 1417.59 530.34 C 1416.35 531.76, 1416.07 532.89, 1415.92 534.12 C 1415.77 535.36, 1416.28 536.03, 1416.82 536.52 C 1417.36 537.00, 1418.08 536.68, 1418.64 536.56 C 1419.20 536.44, 1419.02 536.22, 1419.61 535.92 C 1420.21 535.62, 1420.61 535.57, 1421.62 535.05 C 1422.64 534.52, 1423.20 533.96, 1424.70 533.30 C 1426.19 532.64, 1427.25 531.84, 1429.10 531.76 C 1430.96 531.68, 1432.11 531.72, 1433.98 532.90 C 1435.84 534.08, 1437.12 534.71, 1438.42 537.65 C 1439.72 540.58, 1440.52 542.68, 1440.49 547.59 C 1440.46 552.50, 1440.10 555.61, 1438.27 562.19 C 1436.43 568.77, 1434.88 572.73, 1431.33 580.50 C 1427.78 588.27, 1425.42 592.79, 1420.51 601.06 C 1415.61 609.32, 1412.59 613.85, 1406.82 621.81 C 1401.05 629.77, 1397.72 633.97, 1391.67 640.85 C 1385.62 647.73, 1382.32 651.13, 1376.57 656.23 C 1370.81 661.33, 1367.82 663.45, 1362.90 666.34 C 1357.98 669.23, 1355.57 669.92, 1351.98 670.67 C 1348.39 671.42, 1347.14 671.09, 1344.96 670.09 C 1342.79 669.09, 1342.15 668.41, 1341.10 665.67 C 1340.04 662.92, 1339.67 660.84, 1339.69 656.37 C 1339.71 651.90, 1340.16 648.82, 1341.19 643.32 C 1342.22 637.82, 1343.53 634.34, 1344.84 628.86 C 1346.15 623.38, 1347.56 620.18, 1347.75 615.90 C 1347.94 611.62, 1347.67 609.27, 1345.78 607.47 C 1343.90 605.67, 1342.17 605.36, 1338.34 606.90 C 1334.51 608.45, 1332.20 610.77, 1326.64 615.20 C 1321.08 619.63, 1317.27 623.17, 1310.55 629.07 C 1303.82 634.96, 1299.84 638.75, 1293.01 644.67 C 1286.18 650.59, 1282.43 653.90, 1276.39 658.66 C 1270.35 663.41, 1267.24 665.73, 1262.79 668.46 C 1258.34 671.19, 1256.41 671.77, 1254.16 672.29 C 1251.92 672.82, 1251.98 673.18, 1251.58 671.08 C 1251.18 668.98, 1250.93 667.03, 1252.18 661.79 C 1253.43 656.56, 1254.72 652.74, 1257.84 644.91 C 1260.97 637.07, 1263.30 632.09, 1267.81 622.61 C 1272.32 613.14, 1275.31 607.56, 1280.39 597.54 C 1285.47 587.53, 1288.42 581.95, 1293.22 572.55 C 1298.02 563.15, 1300.53 558.33, 1304.38 550.55 C 1308.23 542.77, 1309.80 539.06, 1312.46 533.64 C 1315.12 528.22, 1316.42 526.54, 1317.69 523.45 C 1318.96 520.35, 1319.06 519.42, 1318.81 518.14 C 1318.56 516.87, 1317.57 516.41, 1316.44 517.06" style="stroke: black; fill: black;"/><path d="M 1496.34,614.81 C 1497.58 614.06, 1498.69 612.65, 1499.35 610.34 C 1500.02 608.02, 1500.32 606.08, 1499.66 603.23 C 1499.01 600.38, 1498.32 598.27, 1496.08 596.08 C 1493.85 593.90, 1492.07 592.72, 1488.51 592.30 C 1484.96 591.88, 1482.80 592.38, 1478.30 593.97 C 1473.80 595.56, 1471.17 596.85, 1466.02 600.26 C 1460.86 603.67, 1457.72 606.05, 1452.53 611.00 C 1447.34 615.95, 1444.43 619.23, 1440.06 625.02 C 1435.69 630.81, 1433.46 634.20, 1430.70 639.96 C 1427.94 645.73, 1426.84 648.81, 1426.25 653.85 C 1425.67 658.88, 1425.93 661.52, 1427.77 665.14 C 1429.61 668.76, 1431.57 670.36, 1435.46 671.96 C 1439.34 673.55, 1442.10 673.72, 1447.19 673.11 C 1452.28 672.51, 1455.31 671.53, 1460.90 668.93 C 1466.49 666.34, 1469.62 664.23, 1475.12 660.13 C 1480.62 656.03, 1483.62 653.34, 1488.40 648.43 C 1493.19 643.52, 1495.53 640.61, 1499.03 635.56 C 1502.53 630.52, 1503.89 627.66, 1505.89 623.19 C 1507.89 618.72, 1508.53 616.54, 1509.03 613.20 C 1509.52 609.87, 1508.91 608.29, 1508.37 606.50 C 1507.83 604.72, 1506.63 604.33, 1506.31 604.29 C 1505.99 604.25, 1505.51 605.50, 1506.78 606.30 C 1508.05 607.10, 1509.37 607.95, 1512.67 608.30 C 1515.98 608.64, 1518.36 608.22, 1523.30 608.01 C 1528.23 607.81, 1531.45 607.50, 1537.34 607.27 C 1543.23 607.05, 1546.75 606.85, 1552.76 606.88 C 1558.77 606.90, 1562.14 606.86, 1567.41 607.40 C 1572.67 607.94, 1575.56 608.29, 1579.07 609.57 C 1582.59 610.85, 1583.66 611.65, 1584.97 613.80 C 1586.28 615.95, 1586.40 617.00, 1585.61 620.31 C 1584.82 623.62, 1583.68 626.09, 1581.00 630.35 C 1578.33 634.61, 1575.81 637.38, 1572.23 641.62 C 1568.65 645.86, 1565.61 648.18, 1563.11 651.56 C 1560.60 654.94, 1559.44 656.78, 1559.70 658.52 C 1559.95 660.26, 1561.45 661.26, 1564.40 660.25 C 1567.34 659.23, 1569.34 656.85, 1574.43 653.44 C 1579.52 650.03, 1583.19 647.33, 1589.84 643.19 C 1596.50 639.05, 1600.69 636.37, 1607.68 632.73 C 1614.68 629.09, 1618.73 627.17, 1624.84 624.99 C 1630.96 622.81, 1634.07 622.15, 1638.26 621.82 C 1642.44 621.50, 1643.81 622.10, 1645.77 623.36 C 1647.72 624.61, 1647.74 625.44, 1648.04 628.11 C 1648.34 630.77, 1647.92 632.82, 1647.27 636.67 C 1646.61 640.53, 1645.68 643.09, 1644.77 647.37 C 1643.87 651.65, 1642.95 654.02, 1642.75 658.06 C 1642.54 662.09, 1642.17 664.48, 1643.75 667.52 C 1645.33 670.57, 1646.99 672.12, 1650.64 673.30 C 1654.29 674.47, 1656.64 674.28, 1661.99 673.40 C 1667.34 672.51, 1670.58 671.39, 1677.39 668.87 C 1684.19 666.34, 1688.15 664.39, 1696.02 660.78 C 1703.88 657.17, 1708.43 654.80, 1716.72 650.82 C 1725.02 646.83, 1729.70 644.45, 1737.50 640.84 C 1745.30 637.22, 1749.32 635.32, 1755.73 632.73 C 1762.15 630.15, 1765.30 629.27, 1769.59 627.91 C 1773.87 626.56, 1775.51 626.55, 1777.16 625.94 C 1778.81 625.33, 1778.55 624.87, 1777.84 624.87 C 1777.12 624.87, 1775.72 624.73, 1773.59 625.93 C 1771.47 627.12, 1770.14 628.46, 1767.20 630.86 C 1764.26 633.25, 1762.40 634.94, 1758.89 637.91 C 1755.39 640.88, 1753.29 642.50, 1749.67 645.71 C 1746.05 648.92, 1744.02 650.70, 1740.80 653.96 C 1737.57 657.21, 1735.78 658.89, 1733.54 661.98 C 1731.30 665.08, 1730.10 666.67, 1729.61 669.43 C 1729.11 672.20, 1729.51 673.92, 1731.05 675.81 C 1732.59 677.70, 1734.20 678.89, 1737.30 678.89 C 1740.40 678.89, 1742.34 677.90, 1746.55 675.82 C 1750.76 673.74, 1753.06 672.21, 1758.36 668.49 C 1763.66 664.78, 1766.81 662.41, 1773.05 657.24 C 1779.29 652.07, 1782.84 648.93, 1789.55 642.63 C 1796.26 636.33, 1799.95 632.69, 1806.61 625.74 C 1813.27 618.78, 1816.71 614.88, 1822.86 607.84 C 1829.00 600.80, 1832.07 597.02, 1837.33 590.52 C 1842.59 584.02, 1845.15 580.74, 1849.17 575.33 C 1853.18 569.91, 1855.31 567.32, 1857.41 563.45 C 1859.50 559.58, 1860.23 557.69, 1859.64 555.97 C 1859.05 554.24, 1857.06 553.28, 1854.46 554.84 C 1851.85 556.39, 1850.40 558.82, 1846.63 563.74 C 1842.85 568.67, 1840.32 572.31, 1835.60 579.48 C 1830.88 586.64, 1827.86 591.27, 1823.01 599.57 C 1818.15 607.87, 1815.40 612.67, 1811.34 620.98 C 1807.28 629.28, 1805.26 633.66, 1802.71 641.10 C 1800.15 648.54, 1799.11 652.22, 1798.57 658.20 C 1798.04 664.17, 1798.18 666.88, 1800.04 670.98 C 1801.89 675.07, 1803.78 676.83, 1807.87 678.66 C 1811.95 680.48, 1814.81 680.64, 1820.46 680.10 C 1826.12 679.56, 1829.44 678.48, 1836.15 675.97 C 1842.86 673.47, 1846.74 671.58, 1854.00 667.58 C 1861.27 663.58, 1865.35 660.90, 1872.47 655.96 C 1879.59 651.01, 1883.46 648.03, 1889.58 642.87 C 1895.71 637.71, 1898.71 634.86, 1903.10 630.17 C 1907.50 625.49, 1909.52 623.24, 1911.55 619.44 C 1913.58 615.63, 1914.06 613.70, 1913.25 611.14 C 1912.45 608.58, 1910.63 607.00, 1907.52 606.64 C 1904.41 606.28, 1901.98 607.19, 1897.71 609.34 C 1893.43 611.50, 1890.79 613.40, 1886.15 617.41 C 1881.50 621.42, 1878.76 624.23, 1874.50 629.40 C 1870.24 634.57, 1867.89 637.72, 1864.85 643.26 C 1861.81 648.79, 1860.30 651.89, 1859.30 657.07 C 1858.30 662.26, 1858.19 665.06, 1859.85 669.19 C 1861.50 673.32, 1863.26 675.35, 1867.58 677.72 C 1871.90 680.09, 1875.01 680.64, 1881.43 681.04 C 1887.86 681.44, 1891.86 680.93, 1899.70 679.70 C 1907.55 678.47, 1912.10 677.35, 1920.66 674.89 C 1929.23 672.43, 1934.06 670.60, 1942.53 667.39 C 1951.00 664.18, 1955.53 662.09, 1963.02 658.84 C 1970.51 655.60, 1974.25 653.75, 1979.99 651.16 C 1985.73 648.56, 1988.66 647.43, 1991.73 645.85 C 1994.80 644.28, 1995.33 643.50, 1995.35 643.27 C 1995.37 643.05, 1993.76 643.09, 1991.82 644.73 C 1989.89 646.37, 1988.43 648.37, 1985.68 651.47 C 1982.92 654.58, 1980.77 656.91, 1978.04 660.25 C 1975.31 663.58, 1973.13 665.33, 1972.01 668.14 C 1970.89 670.96, 1971.20 672.84, 1972.45 674.31 C 1973.70 675.78, 1975.22 676.46, 1978.27 675.50 C 1981.32 674.53, 1983.12 672.52, 1987.69 669.50 C 1992.26 666.49, 1995.19 664.28, 2001.11 660.44 C 2007.03 656.60, 2010.63 654.22, 2017.27 650.30 C 2023.92 646.39, 2027.71 644.27, 2034.35 640.85 C 2040.99 637.44, 2044.43 635.69, 2050.47 633.21 C 2056.50 630.72, 2059.75 629.88, 2064.52 628.43 C 2069.28 626.98, 2071.26 626.88, 2074.29 625.96 C 2077.33 625.03, 2078.69 624.64, 2079.69 623.82 C 2080.69 622.99, 2080.58 622.20, 2079.30 621.82 C 2078.02 621.44, 2076.48 621.32, 2073.30 621.94 C 2070.11 622.56, 2068.18 623.24, 2063.37 624.92 C 2058.56 626.60, 2055.32 627.69, 2049.25 630.36 C 2043.18 633.03, 2039.72 634.83, 2033.02 638.29 C 2026.33 641.75, 2022.53 643.87, 2015.76 647.68 C 2009.00 651.49, 2005.30 653.78, 1999.20 657.35 C 1993.10 660.91, 1989.93 662.91, 1985.27 665.52 C 1980.60 668.13, 1978.16 668.83, 1975.87 670.37 C 1973.58 671.92, 1973.52 672.99, 1973.82 673.24 C 1974.12 673.49, 1975.51 673.39, 1977.36 671.62 C 1979.22 669.85, 1980.46 667.61, 1983.10 664.40 C 1985.74 661.20, 1987.91 658.91, 1990.57 655.62 C 1993.23 652.33, 1995.27 650.66, 1996.40 647.96 C 1997.52 645.26, 1997.46 643.28, 1996.20 642.12 C 1994.95 640.96, 1993.65 640.89, 1990.13 642.14 C 1986.62 643.39, 1984.28 645.49, 1978.65 648.36 C 1973.02 651.23, 1969.37 653.13, 1961.97 656.48 C 1954.58 659.82, 1950.06 661.90, 1941.66 665.08 C 1933.26 668.27, 1928.44 670.06, 1919.96 672.40 C 1911.48 674.74, 1906.93 675.74, 1899.28 676.78 C 1891.62 677.83, 1887.65 678.10, 1881.67 677.62 C 1875.70 677.15, 1873.04 676.37, 1869.39 674.40 C 1865.74 672.43, 1864.73 671.10, 1863.44 667.77 C 1862.15 664.45, 1862.04 662.34, 1862.94 657.78 C 1863.84 653.22, 1865.07 650.17, 1867.94 644.96 C 1870.81 639.75, 1873.10 636.60, 1877.27 631.74 C 1881.45 626.88, 1884.30 624.24, 1888.83 620.65 C 1893.36 617.06, 1896.18 615.63, 1899.92 613.80 C 1903.66 611.97, 1905.52 611.86, 1907.53 611.49 C 1909.55 611.12, 1909.89 610.73, 1910.01 611.94 C 1910.13 613.15, 1909.97 614.33, 1908.13 617.56 C 1906.29 620.79, 1904.87 623.44, 1900.81 628.10 C 1896.75 632.75, 1893.81 635.68, 1887.84 640.82 C 1881.87 645.96, 1878.01 648.94, 1870.98 653.80 C 1863.94 658.66, 1859.85 661.28, 1852.66 665.11 C 1845.48 668.93, 1841.56 670.67, 1835.05 672.93 C 1828.54 675.19, 1825.27 675.98, 1820.13 676.43 C 1815.00 676.87, 1812.76 676.53, 1809.37 675.15 C 1805.99 673.77, 1804.78 672.86, 1803.21 669.51 C 1801.65 666.17, 1801.16 663.95, 1801.55 658.43 C 1801.93 652.91, 1802.75 649.20, 1805.14 641.92 C 1807.52 634.63, 1809.48 630.24, 1813.49 622.03 C 1817.50 613.82, 1820.24 609.02, 1825.18 600.87 C 1830.12 592.71, 1833.27 588.17, 1838.18 581.24 C 1843.08 574.31, 1845.86 570.80, 1849.71 566.22 C 1853.56 561.63, 1855.85 560.37, 1857.45 558.31 C 1859.04 556.24, 1858.36 555.25, 1857.69 555.90 C 1857.01 556.54, 1856.25 557.99, 1854.08 561.53 C 1851.90 565.08, 1850.53 568.15, 1846.80 573.65 C 1843.07 579.14, 1840.56 582.46, 1835.43 589.00 C 1830.30 595.54, 1827.24 599.32, 1821.15 606.35 C 1815.05 613.38, 1811.62 617.26, 1804.96 624.15 C 1798.31 631.04, 1794.61 634.64, 1787.86 640.80 C 1781.11 646.96, 1777.53 650.05, 1771.21 654.96 C 1764.90 659.86, 1761.65 662.10, 1756.30 665.34 C 1750.96 668.58, 1748.40 669.66, 1744.50 671.16 C 1740.60 672.66, 1738.92 672.40, 1736.80 672.84 C 1734.68 673.27, 1734.32 673.72, 1733.91 673.35 C 1733.49 672.97, 1733.89 672.60, 1734.71 670.96 C 1735.53 669.33, 1736.09 667.90, 1738.01 665.17 C 1739.92 662.43, 1741.31 660.47, 1744.27 657.29 C 1747.22 654.12, 1749.20 652.33, 1752.78 649.29 C 1756.36 646.26, 1758.47 644.74, 1762.16 642.12 C 1765.86 639.51, 1768.06 638.43, 1771.24 636.22 C 1774.42 634.00, 1776.32 633.22, 1778.05 631.06 C 1779.79 628.90, 1780.16 627.16, 1779.91 625.42 C 1779.66 623.68, 1779.09 622.55, 1776.79 622.34 C 1774.49 622.14, 1772.85 622.84, 1768.41 624.39 C 1763.98 625.94, 1761.02 627.28, 1754.62 630.11 C 1748.23 632.95, 1744.23 634.87, 1736.44 638.56 C 1728.64 642.26, 1723.96 644.63, 1715.65 648.57 C 1707.34 652.51, 1702.77 654.84, 1694.89 658.27 C 1687.02 661.70, 1682.98 663.52, 1676.28 665.72 C 1669.58 667.93, 1666.23 668.72, 1661.40 669.30 C 1656.57 669.88, 1654.69 669.42, 1652.14 668.61 C 1649.59 667.81, 1649.42 667.29, 1648.64 665.25 C 1647.86 663.22, 1647.93 661.78, 1648.22 658.43 C 1648.52 655.07, 1649.25 652.69, 1650.12 648.49 C 1651.00 644.30, 1652.03 641.74, 1652.59 637.47 C 1653.15 633.20, 1653.85 630.71, 1652.93 627.15 C 1652.02 623.59, 1651.02 621.46, 1648.02 619.68 C 1645.03 617.89, 1642.79 617.74, 1637.94 618.22 C 1633.09 618.70, 1630.10 619.70, 1623.77 622.07 C 1617.45 624.44, 1613.46 626.43, 1606.31 630.06 C 1599.17 633.69, 1594.88 636.24, 1588.05 640.22 C 1581.23 644.20, 1577.39 646.77, 1572.20 649.95 C 1567.00 653.14, 1564.23 654.31, 1562.09 656.15 C 1559.96 658.00, 1560.53 659.43, 1561.51 659.17 C 1562.48 658.91, 1564.13 657.78, 1566.98 654.85 C 1569.84 651.92, 1572.21 648.96, 1575.77 644.53 C 1579.33 640.10, 1581.93 637.36, 1584.79 632.70 C 1587.65 628.05, 1589.25 625.51, 1590.06 621.25 C 1590.87 617.00, 1590.74 614.58, 1588.84 611.45 C 1586.94 608.31, 1584.76 607.17, 1580.55 605.58 C 1576.34 604.00, 1573.33 604.04, 1567.78 603.54 C 1562.22 603.04, 1558.89 603.18, 1552.79 603.09 C 1546.70 603.00, 1543.17 603.18, 1537.29 603.10 C 1531.41 603.02, 1528.18 603.09, 1523.40 602.69 C 1518.62 602.30, 1516.62 601.43, 1513.39 601.12 C 1510.17 600.81, 1509.12 600.64, 1507.28 601.14 C 1505.45 601.63, 1504.94 602.41, 1504.21 603.61 C 1503.49 604.81, 1503.74 605.35, 1503.68 607.14 C 1503.61 608.93, 1504.20 609.64, 1503.90 612.55 C 1503.61 615.46, 1503.74 617.47, 1502.20 621.68 C 1500.66 625.90, 1499.41 628.75, 1496.19 633.64 C 1492.96 638.53, 1490.68 641.40, 1486.06 646.15 C 1481.45 650.90, 1478.45 653.52, 1473.11 657.39 C 1467.77 661.26, 1464.62 663.18, 1459.34 665.48 C 1454.07 667.79, 1451.17 668.43, 1446.72 668.90 C 1442.26 669.38, 1440.12 668.99, 1437.07 667.85 C 1434.02 666.72, 1432.89 665.95, 1431.46 663.23 C 1430.03 660.51, 1429.47 658.62, 1429.91 654.25 C 1430.36 649.88, 1431.14 646.83, 1433.68 641.37 C 1436.21 635.90, 1438.36 632.51, 1442.59 626.93 C 1446.82 621.35, 1449.73 618.14, 1454.84 613.47 C 1459.95 608.81, 1463.14 606.58, 1468.12 603.61 C 1473.11 600.65, 1475.85 599.69, 1479.76 598.67 C 1483.68 597.64, 1485.39 598.12, 1487.70 598.47 C 1490.00 598.83, 1490.42 599.21, 1491.27 600.43 C 1492.13 601.66, 1491.78 602.77, 1491.97 604.60 C 1492.15 606.44, 1491.95 607.71, 1492.19 609.61 C 1492.43 611.51, 1492.32 613.04, 1493.15 614.08 C 1493.98 615.12, 1495.10 615.56, 1496.34 614.81" style="stroke: black; fill: black;"/></svg>