<?xml version="1.0" encoding="UTF-8"?>
<svg xmlns="http://www.w3.org/2000/svg" version="1.1" viewBox="0 0 1693.05 315.17">
  <path d="M725.24,146.79c-64.03,28.48-107.86,51.69-155.31,85.84-42.75,31.85-68.82,60.54-65.52,73.69,20.77,9.4,91.96-136.96,103.58-154.9,6.54-12.47,11.62-26.17,16.15-39.17.35-.96.62-1.72.82-2.28.35-1.03.41-1.42.09-1.29-12.08,10.23-48.07,31.4-73.28,40.35-3.05,1.04-6.56,1.99-9.54,2.15-19.24.42-4.57-29.62.49-37.6,1.89-3.19,2.4-4.01.67-3.22-18.01,9.23-45.13,18.17-65.96,26.27-20.53,7.8-51.62,19.52-67.62,26.87-3.26,1.69-7.2,3.14-8.86,6.11-1.12,2.51,5.09,3.32,9.3,2.7,14.71-1.93,28.15-8.86,40.83-17.94,7.93-5.81,15.07-12.58,19.45-19.29,3.29-5.09,6.63-12.29,3.77-17.62-7.6-11.07-41.3,7.94-59.14,23.29-26.95,22.09-46.87,50.55-65.12,80.07-7.69,12.8-12.12,22.06-14.31,26.84-.91,2.09-2.09,4.59-1.99,6.78.23,3.68,5.07.37,6.45-1.4,5.89-6.53,9.12-12.51,14.67-20.66,23.61-35.69,50.77-79.07,75.26-114.88.26-.35.47-.63.64-.83-4.45,5.43-26.2,18.63-35.6,24.24-27.38,16.14-64.72,41.02-94.81,38.36-9.17-.58-19.63-2.61-26.02-9.77-11.4-12.54,2.86-35.84,14.9-47.17,9.48-9.42,21.43-16.72,34.24-20.78,6.34-2.19,18.8-3.02,16.15,6.58-1.71,6.12-8.8,14.11-19.85,23.01-11.81,9.45-24.37,17.75-37.71,24.72-24.02,12.09-57.07,25.18-80.51,16.08-13.16-5.84-13.17-19.81-6.99-32.44,7.86-16.03,20.57-30.83,36.3-38.5,4.59-2.48,13.83-4.94,16.04-1.8,2.7,3.79-1.08,10.46-5.88,17.42-19.44,25.69-67.04,59.67-100.25,57.69-19.2-.46-29.45-15.32-27.55-33.47,1.29-30.99,32.54-84.3,60.38-111.56,7.46-7.37,30.63-28.01,39.87-22.46,2.27,1.89,1.99,6.73-.82,13.21-5.94,13.3-18.4,26.2-28.92,36.4-39.52,36.43-83.56,64.79-127.08,96.28-15.23,10.91-29.52,21.07-41.98,34.87-4.2,4.35-10.73,14.2-7.77,18.04,7.32,7.71,42.59-10.05,58.13-17.41,17.49-8.95,52.46-28.44,57.31-46.52,2.21-15.39-28.03-24.45-39.07-28.85-10.84-3.96-22.13-8.01-31.31-15.1-12.19-9.1-16.31-23.94-8.39-36.83,10.98-18.72,38.13-38.93,58.07-48.38,10.1-4.82,22.97-6.94,33.65-4.84M925.44,24.44c-6.11,15.53-26.96,67.91-44.67,96.97-6.15,10.21-12,21.2-16.25,32.72-3.5,9.05-9.43,31.68,1.51,25.5,11.5-6.98,21.86-16.42,32.77-25.25,14.19-11.62,33.6-28.89,46.9-37.23,5.36-3.27,7.55-1.38,7.16,5.52-.41,6.99-1.81,13.08-3.08,20.87-15.27,75.65,49.83,15.17,75.42-25.43,7.22-11.1,13.72-21.65,18.54-33.83,8.31-19.94,15.62-59.74-15.66-44.85M1104.51,117.91c1.29-17.79-12.71-17.74-25.18-11.4-7.73,3.65-16.36,11.27-22.59,19.08-8.32,10.6-17.09,23.81-18.41,36.52-.49,22.5,27.16,17.74,43.99,5.29,12.28-8.89,21.85-21.98,28.93-35.21,2.92-5.93,6.42-12.97,6.16-18.39-.03-1.34-.37-2.11-.17-3.05.1-.16.29-.26.62-.31,1.14-.12,2.25-.07,3.5-.07,5.29.06,18.09-.11,26.18-.03,13.13.24,29.53.54,41.43,4.99,6.43,2.62,7.57,7.94,5.19,15.51-2.99,9.77-12.5,26.96-19.21,33.09,4.67-4.25,12.11-8.77,18.21-12.58,11.85-7.2,23.54-13.81,36.53-18.61,8.35-3.09,18.31-5.62,23.8-4.63,4.32.7,6.21,3.55,6.07,9.15-.29,10.94-5.41,23.3-3.2,34.46,2.76,16.44,48.76-4.57,59.96-9.96,21.06-10.42,43.76-24.56,65.81-29.46,6.23-1.26-1.1,4.59-2.92,6.43-3.78,3.47-9.42,8.46-15.11,13.85-9.3,9.15-16.89,15.92-20.6,24.79-1.41,3.93,1.17,5.75,6.17,4.24,7.87-2.29,18.08-8.97,25.96-14.76,10.02-7.37,20.02-16.11,29-25.07,17.95-18.48,58.52-62.34,61.59-78.66-.67-2.11-6.37,4.6-12.66,12.99-13.86,19.09-47.37,69.31-42.56,93.72,2.5,12.67,13.88,15.93,25.16,13.55,9.27-1.75,17.03-4.91,24.87-9.48,16.71-10.05,45.93-28.48,56.78-47.89,1.65-3.17,3.36-7.65.81-10.06-2.26-1.82-7.62-.15-13.99,4-13.67,9.08-29.38,25.83-32.65,42.99-5.7,45,66.07,16.89,92.97,5.17,10.03-4.42,23.6-9.49,33-14.07,4.48-2.28,5.86-4.09,3.62-2.25-1.21,1.01-3.51,3.23-6.05,6.33-2.5,2.79-16.69,22.71-4.53,17.64,17.99-8.15,62.96-40.54,92.38-45.5" fill="none" stroke-linecap="round" stroke-miterlimit="10" stroke-width="2"/>
</svg>