<?xml version="1.0" encoding="UTF-8"?>
<svg xmlns="http://www.w3.org/2000/svg" version="1.1" viewBox="0 0 1693.05 315.17">
  <path data-id="sleepy" d="M135.31,7.68c-10.67-2.09-23.55.02-33.65,4.84-19.94,9.44-47.1,29.65-58.07,48.38-7.92,12.9-3.8,27.74,8.39,36.83,9.17,7.09,20.47,11.14,31.31,15.1,11.04,4.41,41.28,13.46,39.07,28.85-4.85,18.08-39.83,37.57-57.31,46.52-15.54,7.36-50.81,25.12-58.13,17.41-2.96-3.85,3.57-13.69,7.77-18.04,12.46-13.79,26.75-23.96,41.98-34.87,43.53-31.49,87.57-59.85,127.08-96.28,10.52-10.2,22.98-23.11,28.92-36.4,2.81-6.48,3.08-11.32.82-13.21-9.24-5.56-32.4,15.09-39.87,22.46-27.83,27.26-59.08,80.57-60.38,111.56-1.91,18.15,8.34,33.01,27.55,33.47,33.21,1.98,80.81-32,100.25-57.69,4.8-6.97,8.58-13.63,5.88-17.42-2.21-3.14-11.45-.68-16.04,1.8-15.73,7.67-28.44,22.47-36.3,38.5-6.18,12.64-6.17,26.61,6.99,32.44,23.43,9.1,56.49-3.99,80.51-16.08,13.34-6.97,25.9-15.28,37.71-24.72,11.05-8.89,18.15-16.89,19.85-23.01,2.65-9.59-9.81-8.76-16.15-6.58-12.81,4.06-24.76,11.36-34.24,20.78-12.04,11.33-26.3,34.63-14.9,47.17,6.39,7.16,16.85,9.19,26.02,9.77,30.1,2.66,67.43-22.22,94.81-38.36,9.39-5.61,31.15-18.81,35.6-24.24-.16.21-.38.48-.64.83-24.48,35.81-51.65,79.18-75.26,114.88-5.54,8.14-8.77,14.13-14.67,20.66-1.38,1.77-6.21,5.07-6.45,1.4-.1-2.2,1.08-4.7,1.99-6.78,2.18-4.79,6.62-14.04,14.31-26.84,18.25-29.52,38.17-57.98,65.12-80.07,17.84-15.35,51.54-34.36,59.14-23.29,2.85,5.33-.49,12.53-3.77,17.62-4.38,6.71-11.52,13.48-19.45,19.29-12.68,9.07-26.13,16.01-40.83,17.94-4.21.62-10.42-.18-9.3-2.7,1.66-2.98,5.6-4.42,8.86-6.11,15.99-7.35,47.09-19.07,67.62-26.87,20.83-8.1,47.95-17.04,65.96-26.27,1.73-.78,1.22.03-.67,3.22-5.06,7.97-19.74,38.01-.49,37.6,2.97-.15,6.49-1.11,9.54-2.15,25.22-8.94,61.21-30.11,73.28-40.35.32-.13.25.26-.09,1.29-.19.57-.47,1.33-.82,2.28-4.53,13-9.61,26.7-16.15,39.17-11.62,17.93-82.82,164.3-103.58,154.9-3.3-13.15,22.77-41.84,65.52-73.69,47.45-34.15,91.28-57.36,155.31-85.84" fill="none" stroke="#000" stroke-linecap="round" stroke-miterlimit="10" stroke-width="2"/>
  <path data-id="W" d="M925.44,24.44c-6.11,15.53-26.96,67.91-44.67,96.97-6.15,10.21-12,21.2-16.25,32.72-3.5,9.05-9.43,31.68,1.51,25.5,11.5-6.98,21.86-16.42,32.77-25.25,14.19-11.62,33.6-28.89,46.9-37.23,5.36-3.27,7.55-1.38,7.16,5.52-.41,6.99-1.81,13.08-3.08,20.87-15.27,75.65,49.83,15.17,75.42-25.43,7.22-11.1,13.72-21.65,18.54-33.83,8.31-19.94,15.62-59.74-15.66-44.85" fill="none" stroke="#000" stroke-linecap="round" stroke-miterlimit="10" stroke-width="2"/>
  <path  data-id="onder"d="M1104.51,117.91c1.29-17.79-12.71-17.74-25.18-11.4-7.73,3.65-16.36,11.27-22.59,19.08-8.32,10.6-17.09,23.81-18.41,36.52-.49,22.5,27.16,17.74,43.99,5.29,12.28-8.89,21.85-21.98,28.93-35.21,2.92-5.93,6.42-12.97,6.16-18.39-.03-1.34-.37-2.11-.17-3.05.1-.16.29-.26.62-.31,1.14-.12,2.25-.07,3.5-.07,5.29.06,18.09-.11,26.18-.03,13.13.24,29.53.54,41.43,4.99,6.43,2.62,7.57,7.94,5.19,15.51-2.99,9.77-12.5,26.96-19.21,33.09,4.67-4.25,12.11-8.77,18.21-12.58,11.85-7.2,23.54-13.81,36.53-18.61,8.35-3.09,18.31-5.62,23.8-4.63,4.32.7,6.21,3.55,6.07,9.15-.29,10.94-5.41,23.3-3.2,34.46,2.76,16.44,48.76-4.57,59.96-9.96,21.06-10.42,43.76-24.56,65.81-29.46,6.23-1.26-1.1,4.59-2.92,6.43-3.78,3.47-9.42,8.46-15.11,13.85-9.3,9.15-16.89,15.92-20.6,24.79-1.41,3.93,1.17,5.75,6.17,4.24,7.87-2.29,18.08-8.97,25.96-14.76,10.02-7.37,20.02-16.11,29-25.07,17.95-18.48,58.52-62.34,61.59-78.66-.67-2.11-6.37,4.6-12.66,12.99-13.86,19.09-47.37,69.31-42.56,93.72,2.5,12.67,13.88,15.93,25.16,13.55,9.27-1.75,17.03-4.91,24.87-9.48,16.71-10.05,45.93-28.48,56.78-47.89,1.65-3.17,3.36-7.65.81-10.06-2.26-1.82-7.62-.15-13.99,4-13.67,9.08-29.38,25.83-32.65,42.99-5.7,45,66.07,16.89,92.97,5.17,10.03-4.42,23.6-9.49,33-14.07,4.48-2.28,5.86-4.09,3.62-2.25-1.21,1.01-3.51,3.23-6.05,6.33-2.5,2.79-16.69,22.71-4.53,17.64,17.99-8.15,62.96-40.54,92.38-45.5" fill="none" stroke="#000" stroke-linecap="round" stroke-miterlimit="10" stroke-width="2"/>
</svg>