<?xml version="1.0" encoding="UTF-8"?>
<svg xmlns="http://www.w3.org/2000/svg" version="1.1" viewBox="0 0 1693.05 315.17">
  <path d="M 135.29 7.69 C 124.61 5.59 111.74 7.71 101.64 12.53 C 81.7 21.98 54.55 42.19 43.57 60.91 C 35.65 73.8 39.77 88.64 51.96 97.74 C 61.14 104.83 72.43 108.88 83.27 112.84 C 94.31 117.24 124.55 126.3 122.34 141.69 C 117.49 159.77 82.52 179.26 65.03 188.21 C 49.49 195.57 14.22 213.33 6.9 205.62 C 3.94 201.78 10.47 191.93 14.67 187.58 C 27.13 173.78 41.42 163.62 56.65 152.71 C 100.17 121.22 144.21 92.86 183.73 56.43 C 194.25 46.23 206.71 33.33 212.65 20.03 C 215.46 13.55 215.74 8.71 213.47 6.82 C 204.23 1.27 181.06 21.91 173.6 29.28 C 145.76 56.54 114.51 109.85 113.22 140.84 C 111.32 158.99 121.57 173.85 140.77 174.31 C 173.98 176.29 221.58 142.31 241.02 116.62 C 245.82 109.66 249.6 102.99 246.9 99.2 C 244.69 96.06 235.45 98.52 230.86 101 C 215.13 108.67 202.42 123.47 194.56 139.5 C 188.38 152.13 188.39 166.1 201.55 171.94 C 224.99 181.04 258.04 167.95 282.06 155.86 C 295.4 148.89 307.96 140.59 319.77 131.14 C 330.82 122.24 337.91 114.25 339.62 108.13 C 342.27 98.53 329.81 99.36 323.47 101.55 C 310.66 105.61 298.71 112.91 289.23 122.33 C 277.19 133.66 262.93 156.96 274.33 169.5 C 280.72 176.66 291.18 178.69 300.35 179.27 C 330.44 181.93 367.78 157.05 395.16 140.91 C 404.56 135.3 426.31 122.1 430.76 116.67 C 430.59 116.87 430.38 117.15 430.12 117.5 C 405.63 153.31 378.47 196.69 354.86 232.38 C 349.31 240.53 346.08 246.51 340.19 253.04 C 338.81 254.81 333.97 258.12 333.74 254.44 C 333.64 252.25 334.82 249.75 335.73 247.66 C 337.92 242.88 342.35 233.62 350.04 220.82 C 368.29 191.3 388.21 162.84 415.16 140.75 C 433 125.4 466.7 106.39 474.3 117.46 C 477.16 122.79 473.82 129.99 470.53 135.08 C 466.15 141.79 459.01 148.56 451.08 154.37 C 438.4 163.45 424.96 170.38 410.25 172.31 C 406.04 172.93 399.83 172.12 400.95 169.61 C 402.61 166.64 406.55 165.19 409.81 163.5 C 425.81 156.15 456.9 144.43 477.43 136.63 C 498.26 128.53 525.38 119.59 543.39 110.36 C 545.12 109.57 544.61 110.39 542.72 113.58 C 537.66 121.56 522.99 151.6 542.23 151.18 C 545.21 151.02 548.72 150.07 551.77 149.03 C 576.98 140.08 612.97 118.91 625.05 108.68 C 625.37 108.55 625.31 108.94 624.96 109.97 C 624.76 110.53 624.49 111.29 624.14 112.25 C 619.61 125.25 614.53 138.95 607.99 151.42 C 596.37 169.36 525.18 315.72 504.41 306.32 C 501.11 293.17 527.18 264.48 569.93 232.63 C 617.38 198.48 661.21 175.27 725.24 146.79M925.44,24.44c-6.11,15.53-26.96,67.91-44.67,96.97-6.15,10.21-12,21.2-16.25,32.72-3.5,9.05-9.43,31.68,1.51,25.5,11.5-6.98,21.86-16.42,32.77-25.25,14.19-11.62,33.6-28.89,46.9-37.23,5.36-3.27,7.55-1.38,7.16,5.52-.41,6.99-1.81,13.08-3.08,20.87-15.27,75.65,49.83,15.17,75.42-25.43,7.22-11.1,13.72-21.65,18.54-33.83,8.31-19.94,15.62-59.74-15.66-44.85M1104.51,117.91c1.29-17.79-12.71-17.74-25.18-11.4-7.73,3.65-16.36,11.27-22.59,19.08-8.32,10.6-17.09,23.81-18.41,36.52-.49,22.5,27.16,17.74,43.99,5.29,12.28-8.89,21.85-21.98,28.93-35.21,2.92-5.93,6.42-12.97,6.16-18.39-.03-1.34-.37-2.11-.17-3.05.1-.16.29-.26.62-.31,1.14-.12,2.25-.07,3.5-.07,5.29.06,18.09-.11,26.18-.03,13.13.24,29.53.54,41.43,4.99,6.43,2.62,7.57,7.94,5.19,15.51-2.99,9.77-12.5,26.96-19.21,33.09,4.67-4.25,12.11-8.77,18.21-12.58,11.85-7.2,23.54-13.81,36.53-18.61,8.35-3.09,18.31-5.62,23.8-4.63,4.32.7,6.21,3.55,6.07,9.15-.29,10.94-5.41,23.3-3.2,34.46,2.76,16.44,48.76-4.57,59.96-9.96,21.06-10.42,43.76-24.56,65.81-29.46,6.23-1.26-1.1,4.59-2.92,6.43-3.78,3.47-9.42,8.46-15.11,13.85-9.3,9.15-16.89,15.92-20.6,24.79-1.41,3.93,1.17,5.75,6.17,4.24,7.87-2.29,18.08-8.97,25.96-14.76,10.02-7.37,20.02-16.11,29-25.07,17.95-18.48,58.52-62.34,61.59-78.66-.67-2.11-6.37,4.6-12.66,12.99-13.86,19.09-47.37,69.31-42.56,93.72,2.5,12.67,13.88,15.93,25.16,13.55,9.27-1.75,17.03-4.91,24.87-9.48,16.71-10.05,45.93-28.48,56.78-47.89,1.65-3.17,3.36-7.65.81-10.06-2.26-1.82-7.62-.15-13.99,4-13.67,9.08-29.38,25.83-32.65,42.99-5.7,45,66.07,16.89,92.97,5.17,10.03-4.42,23.6-9.49,33-14.07,4.48-2.28,5.86-4.09,3.62-2.25-1.21,1.01-3.51,3.23-6.05,6.33-2.5,2.79-16.69,22.71-4.53,17.64,17.99-8.15,62.96-40.54,92.38-45.5" fill="none" stroke-linecap="round" stroke-miterlimit="10" stroke-width="2"/>
</svg>