<?xml version="1.0" standalone="yes"?>
<svg xmlns="http://www.w3.org/2000/svg" width="302" height="58">
<path style="stroke:#8e8e8e; fill:none;" d="M33 11L33 12"/>
<path style="stroke:#6e6e6e; fill:none;" d="M30 14L29 15"/>
<path style="stroke:#2a2a2a; fill:none;" d="M260 14L259 15"/>
<path style="stroke:#8e8e8e; fill:none;" d="M159 17L160 17"/>
<path style="stroke:#414141; fill:none;" d="M256 18L257 18"/>
<path style="stroke:#656565; fill:none;" d="M58 19L57 20"/>
<path style="stroke:#5e5e5e; fill:none;" d="M11 20L12 20"/>
<path style="stroke:#f8f8f8; fill:none;" d="M112 20L113 21"/>
<path style="stroke:#f9f9f9; fill:none;" d="M203 20L204 20"/>
<path style="stroke:#000000; fill:none;" d="M97 21L97 22"/>
<path style="stroke:#484848; fill:none;" d="M204 21L205 21"/>
<path style="stroke:#494949; fill:none;" d="M60 22L59 23"/>
<path style="stroke:#797979; fill:none;" d="M189 22L189 23"/>
<path style="stroke:#5b5b5b; fill:none;" d="M91 23L92 23"/>
<path style="stroke:#515151; fill:none;" d="M76 24L76 25"/>
<path style="stroke:#484848; fill:none;" d="M221 24L222 24"/>
<path style="stroke:#797979; fill:none;" d="M164 25L165 25"/>
<path style="stroke:#5b5b5b; fill:none;" d="M242 26L243 26"/>
<path style="stroke:#9c9c9c; fill:none;" d="M20 27L21 27"/>
<path style="stroke:#e1e1e1; fill:none;" d="M74 28L73 29"/>
<path style="stroke:#5d5d5d; fill:none;" d="M78 28L78 30"/>
<path style="stroke:#aeaeae; fill:none;" d="M78 29L79 29"/>
<path style="stroke:#fefefe; fill:none;" d="M167 29L167 30"/>
<path style="stroke:#e5e5e5; fill:none;" d="M248 29L247 30"/>
<path style="stroke:#efefef; fill:none;" d="M20 31L19 32"/>
<path style="stroke:#e6e6e6; fill:none;" d="M159 31L158 32"/>
<path style="stroke:#4a4a4a; fill:none;" d="M36 32L37 32"/>
<path style="stroke:#9b9b9b; fill:none;" d="M40 32L40 33"/>
<path style="stroke:#f7f7f7; fill:none;" d="M53 32L54 32"/>
<path style="stroke:#5e5e5e; fill:none;" d="M58 32L60 32"/>
<path style="stroke:#626262; fill:none;" d="M228 32L229 32"/>
<path style="stroke:#000000; fill:none;" d="M282 32L282 33"/>
<path style="stroke:#9d9d9d; fill:none;" d="M25 33L26 33"/>
<path style="stroke:#494949; fill:none;" d="M52 33L53 33"/>
<path style="stroke:#fcfcfc; fill:none;" d="M280 34L281 35"/>
<path style="stroke:#8b8b8b; fill:none;" d="M99 44L98 45"/>
</svg>
